<svg width="259" height="149" viewBox="0 0 259 149" fill="none" xmlns="http://www.w3.org/2000/svg">
<path d="M74.2966 140.094C74.2966 140.094 71.4478 128.444 60.5348 123.7C49.6219 118.955 41.9927 120.337 40.5055 119.358C39.0184 118.38 40.3461 123.832 40.9072 125.954C41.4682 128.076 42.732 135.397 48.7627 141.415C54.7934 147.433 68.8433 144.555 68.8433 144.555L74.2966 140.094Z" fill="#F0EBF7"/>
<path d="M67.4784 135.523C67.5079 135.517 67.5356 135.501 67.5577 135.478C67.6178 135.414 67.6147 135.314 67.5509 135.254C67.4992 135.205 62.3048 130.349 55.8012 126.928C52.5075 125.195 49.4176 124.045 46.9349 123.121C44.4873 122.21 42.7188 121.552 42.0555 120.823C41.9966 120.758 41.8962 120.754 41.8317 120.812C41.767 120.871 41.7623 120.971 41.8212 121.036C42.5363 121.822 44.335 122.491 46.8244 123.418C49.2987 124.339 52.3778 125.485 55.6537 127.208C62.1178 130.608 67.2824 135.436 67.3338 135.485C67.374 135.522 67.4285 135.535 67.4784 135.523Z" fill="#CBC0E0"/>
<path d="M53.206 132.356C57.17 131.432 60.3331 129.979 60.3805 129.957C60.4598 129.92 60.4943 129.826 60.4575 129.747C60.4206 129.667 60.3271 129.633 60.247 129.67C60.1766 129.702 53.1195 132.943 46.902 132.783C46.8144 132.78 46.7418 132.85 46.7396 132.937C46.7373 133.025 46.8064 133.098 46.8938 133.1C49.0035 133.154 51.2066 132.823 53.206 132.356Z" fill="#CBC0E0"/>
<path d="M47.5185 126.542C49.5896 126.059 51.5399 125.316 51.6625 125.269C51.7441 125.237 51.785 125.146 51.7536 125.064C51.7223 124.982 51.6312 124.942 51.549 124.973C51.5039 124.99 47.02 126.699 44.4454 126.633C44.3579 126.63 44.2853 126.7 44.283 126.787C44.2808 126.875 44.3499 126.947 44.4373 126.95C45.338 126.973 46.4445 126.792 47.5185 126.542Z" fill="#CBC0E0"/>
<path d="M57.001 138.154C60.4897 137.341 66.1133 134.66 66.3981 134.523C66.477 134.486 66.5103 134.391 66.4725 134.312C66.4346 134.233 66.3402 134.2 66.2612 134.237C66.1779 134.277 57.9055 138.222 55.2115 138.065C55.1246 138.06 55.0492 138.126 55.0441 138.214C55.039 138.301 55.1056 138.376 55.193 138.381C55.6638 138.409 56.288 138.321 57.001 138.154Z" fill="#CBC0E0"/>
<path d="M64.2045 132.765C64.2737 132.748 64.3257 132.687 64.3268 132.613C64.3275 132.573 64.367 128.599 62.647 125.412C62.6054 125.335 62.5092 125.306 62.4324 125.348C62.3554 125.389 62.3266 125.485 62.3681 125.562C64.0481 128.675 64.0107 132.569 64.01 132.608C64.0088 132.695 64.0786 132.767 64.1661 132.769C64.1794 132.769 64.1922 132.767 64.2045 132.765Z" fill="#CBC0E0"/>
<path d="M56.8437 127.81C56.8447 127.81 56.8454 127.81 56.8464 127.809C56.9313 127.788 56.9827 127.702 56.9615 127.617C56.9262 127.476 56.0803 124.134 54.7351 122.161C54.6858 122.089 54.5869 122.07 54.515 122.119C54.4426 122.169 54.4239 122.267 54.4733 122.339C55.7868 124.266 56.6457 127.66 56.6542 127.694C56.6752 127.778 56.7598 127.83 56.8437 127.81Z" fill="#CBC0E0"/>
<path d="M103.14 49.7749L98.6317 49.0177C98.6317 49.0177 96.0159 46.0578 88.7883 56.2798C81.5607 66.5017 78.463 76.5861 82.2833 78.5134C86.1037 80.4408 96.9452 79.0986 96.9452 79.0986L103.14 49.7749Z" fill="#FBD163"/>
<path d="M95.1899 58.1558C92.7118 60.9263 90.2338 61.3471 86.5167 67.3319C82.7996 73.3167 91.8885 71.0451 91.8885 71.0451C91.8885 71.0451 97.4614 66.7787 97.4614 65.9176C97.4614 65.0564 95.1899 58.1558 95.1899 58.1558Z" fill="#EDBF47"/>
<path d="M47.7151 147.717C47.7151 147.717 47.6869 130.666 66.3566 138.96C66.3566 138.96 70.4593 124.283 81.211 124.976C91.9627 125.67 93.0033 139.559 93.0033 139.559C93.0033 139.559 107.728 132.074 115.626 147.254L47.7151 147.717Z" fill="#D6ECE0"/>
<path d="M81.5409 147.334L81.9157 147.282C80.6694 138.385 85.4626 132.003 85.5113 131.94L85.2106 131.709C85.1611 131.774 80.2729 138.283 81.5409 147.334Z" fill="#93DEB4"/>
<path d="M81.3651 141.868L81.6706 141.645C81.6265 141.585 77.2555 135.572 76.5075 131.788L76.1361 131.862C76.9005 135.728 81.1832 141.619 81.3651 141.868Z" fill="#93DEB4"/>
<path d="M81.5359 144.997C84.9263 144.784 87.9301 140.764 88.0563 140.593L87.7517 140.369C87.7219 140.409 84.7258 144.418 81.5122 144.619L81.5359 144.997Z" fill="#93DEB4"/>
<path d="M70.4645 147.232L69.956 146.868C69.8971 146.825 63.9973 142.644 57.6812 142.35L57.6637 142.728C62.7599 142.965 67.5927 145.787 69.1861 146.809L62.8911 146.59L62.878 146.968L70.4645 147.232Z" fill="#93DEB4"/>
<path d="M65.7799 144.87L66.138 144.747C65.1685 141.92 63.0558 139.161 63.0346 139.133L62.7347 139.364C62.7557 139.391 64.831 142.103 65.7799 144.87Z" fill="#93DEB4"/>
<path d="M95.4164 147.165C95.4622 147.127 100.053 143.272 105.174 141.475L105.049 141.118C99.86 142.938 95.2181 146.837 95.1719 146.877L95.4164 147.165Z" fill="#93DEB4"/>
<path d="M107.385 145.812L107.558 145.476C107.424 145.407 104.207 143.795 98.2771 144.62L98.3294 144.995C104.129 144.188 107.353 145.796 107.385 145.812Z" fill="#93DEB4"/>
<path d="M174.915 74.1771H136.27C135.746 74.1771 135.321 73.7521 135.321 73.228V49.1358C135.321 48.6117 135.746 48.1868 136.27 48.1868H174.915C175.439 48.1868 175.864 48.6117 175.864 49.1358V73.228C175.864 73.7521 175.439 74.1771 174.915 74.1771Z" fill="#24292F"/>
<path d="M160.136 78.5137H151.049V70.4773H160.136V78.5137Z" fill="#24292F"/>
<path d="M136.353 73.1445V49.2192H174.832V73.1445H136.353Z" fill="white"/>
<path d="M148.336 74.917C148.336 74.917 153.086 75.2268 155.306 76.1044C157.526 76.982 159.642 78.5136 158.919 78.5136C158.197 78.5136 149.265 78.5136 149.265 78.5136L148.336 74.917Z" fill="#F6A49D"/>
<path d="M216 147.211C216 147.211 211.865 135.245 199.725 138.925C199.725 138.925 199.686 128.983 189.13 127.476C177.412 125.803 173.868 136.714 173.868 136.714C173.868 136.714 158.877 134.958 158.877 147.211H216Z" fill="#D6ECE0"/>
<path d="M183.565 147.938L183.726 147.675C177.473 143.832 175.946 137.492 175.931 137.429L175.63 137.498C175.645 137.563 177.202 144.028 183.565 147.938Z" fill="#93DEB4"/>
<path d="M180.029 145.205L180.048 144.897C179.987 144.893 173.925 144.519 171.152 143.022L171.005 143.294C173.839 144.824 179.778 145.19 180.029 145.205Z" fill="#93DEB4"/>
<path d="M182.089 146.725C183.719 144.479 182.749 140.496 182.707 140.327L182.407 140.402C182.417 140.442 183.384 144.415 181.839 146.544L182.089 146.725Z" fill="#93DEB4"/>
<path d="M187.515 148.008L188.024 147.643C188.083 147.601 193.982 143.419 200.299 143.125L200.316 143.503C195.22 143.741 190.387 146.563 188.794 147.584L195.089 147.365L195.102 147.743L187.515 148.008Z" fill="#93DEB4"/>
<path d="M192.2 145.645L191.842 145.522C192.811 142.695 194.924 139.936 194.945 139.908L195.245 140.139C195.224 140.166 193.149 142.878 192.2 145.645Z" fill="#93DEB4"/>
<path d="M144.545 133.788C144.545 133.788 147.16 137.84 147.023 140.369C146.885 142.897 145.935 144.664 146.41 147.211H167.604C167.604 147.211 165.591 144.023 161.943 143.059C158.295 142.095 155.352 143.493 150.808 131.172C147.262 121.554 144.545 133.788 144.545 133.788Z" fill="#24292F"/>
<path d="M153.218 131.392L144.131 135.245C144.131 135.245 143.704 134.415 142.969 133.096C141.059 129.662 137.067 122.909 133.119 118.851C127.652 113.234 122.38 98.6137 122.38 98.6137L132.864 97.9446L135.32 97.7876L136.138 99.322L141.924 110.186L153.218 131.392Z" fill="#745FAA"/>
<path d="M136.138 99.3217L132.864 97.9443L122.38 98.6134C122.38 98.6134 127.652 113.234 133.119 118.851C137.067 122.909 141.059 129.661 142.969 133.096C143.074 132.47 143.229 131.805 143.444 131.103C145.096 125.734 139.45 124.082 141.24 116.517C141.837 113.996 141.996 111.929 141.924 110.186L136.138 99.3217Z" fill="#574780"/>
<g opacity="0.52">
<path d="M0 61.7207C0 61.7207 3.13429 56.3676 10.0219 58.0012C14.3756 59.0339 16.1653 52.6582 19.7714 51.256C26.3825 48.6852 30.2188 61.4789 37.5166 57.9037C42.3419 55.5399 48.1591 61.7207 48.1591 61.7207H0Z" fill="#F0EBF7"/>
</g>
<g opacity="0.52">
<path d="M79.5398 13.6062C79.5398 13.6062 81.2097 13.1068 83.4907 9.68517C85.7718 6.26354 89.5416 10.918 92.4582 5.32403C95.3747 -0.269936 97.314 -2.00235 102.367 2.78712C107.421 7.5766 110.631 9.35838 114.573 6.43896C118.514 3.51953 120.778 7.86982 124.288 10.738C127.797 13.6062 131.169 11.9121 132.466 13.6062H79.5398Z" fill="#F0EBF7"/>
</g>
<g opacity="0.52">
<path d="M164.688 35.2678C164.688 35.2678 167.823 29.9147 174.71 31.5484C179.064 32.581 180.853 26.2054 184.46 24.8031C191.071 22.2323 194.907 35.026 202.205 31.4508C207.03 29.087 212.847 35.2678 212.847 35.2678H164.688Z" fill="#F0EBF7"/>
</g>
<g opacity="0.52">
<path d="M206.074 67.207C206.074 67.207 207.744 66.7076 210.025 63.286C212.306 59.8644 216.076 64.5188 218.992 58.9249C221.909 53.3309 223.848 51.5985 228.902 56.388C233.955 61.1774 237.165 62.9592 241.107 60.0398C245.049 57.1204 247.312 61.4707 250.822 64.3388C254.331 67.207 257.703 65.5129 259 67.207H206.074Z" fill="#F0EBF7"/>
</g>
<path d="M184.193 82.6438H70.6158V78.5137H184.193V82.6438Z" fill="#7DD0E2"/>
<path d="M184.193 83.721H70.6158V82.667H184.193V83.721Z" fill="#A7ADBF"/>
<path d="M184.193 82.6438H148.262V78.5137H184.193V82.6438Z" fill="#C2E7F0"/>
<path d="M216 148.036H47.4822V147.21H216V148.036Z" fill="#3A3E49"/>
<path d="M120.619 100.932C112.272 100.544 99.5063 99.9902 94.8455 99.9902C92.5677 99.9902 91.2234 98.6252 90.449 96.7626C93.4309 98.7925 95.4945 99.6946 97.4616 97.5376C99.7288 95.0514 99.8065 97.3239 104.713 98.7852C107.14 99.5078 111.465 99.649 116.407 99.6722C119.248 99.6867 120.483 100.164 120.619 100.932Z" fill="#574780"/>
<path d="M121.278 133.582C121.278 133.582 121.203 138.304 119.609 141.773C118.439 144.32 117.974 147.211 117.974 147.211H129.471H139.175C139.175 147.211 137.799 144.458 134.208 143.687C129.269 142.627 126.51 139.089 127.68 134.545C128.85 130.002 121.278 133.582 121.278 133.582Z" fill="#24292F"/>
<path d="M141.654 103.569L128.299 136.335H119.351C119.351 136.335 122.379 128.075 123.069 121.054C123.756 114.033 128.299 101.298 128.299 101.298C128.299 101.298 125.094 101.139 120.619 100.932C112.272 100.544 99.5063 99.9905 94.8455 99.9905C92.5678 99.9905 91.2234 98.6256 90.449 96.7629C88.7908 92.7712 89.751 86.4976 89.751 86.4976H115.019C115.019 86.4976 131.19 90.9042 137.937 93.7953C144.681 96.6864 141.654 103.569 141.654 103.569Z" fill="#745FAA"/>
<path d="M123.965 136.378L123.777 136.293C123.923 135.967 138.379 103.684 137.234 100.021C136.489 97.6387 127.315 95.1488 118.637 93.9206C112.34 93.0292 111.297 88.2199 111.287 88.1713L111.49 88.1304C111.499 88.1776 112.519 92.8459 118.666 93.7161C127.408 94.9533 136.661 97.4951 137.431 99.9596C138.6 103.697 124.563 135.045 123.965 136.378Z" fill="white"/>
<path d="M115.273 88.1506H89.5776L89.7518 86.4985H115.273V88.1506Z" fill="#24292F"/>
<path d="M149.019 74.3731V78.5382H129.504C129.504 78.5382 126.779 78.4965 123.943 72.9385C123.201 71.485 122.55 69.6889 122.565 68.1379C122.571 67.4569 122.159 67.9761 122.029 68.6431C121.48 71.4268 120.344 76.6472 119.041 79.5527C117.199 83.6601 115.018 86.4975 115.018 86.4975H89.7526C89.7526 86.4975 88.4474 84.6307 88.2739 80.0401C88.2347 78.9539 88.2575 77.7148 88.3752 76.3106C88.9947 68.9797 91.7825 59.274 92.2987 56.2797C92.5073 55.0655 92.8707 53.6158 93.2259 52.3189C93.833 50.1094 95.7473 48.5048 98.0313 48.3148C102.83 47.9204 111.884 48.0278 123.254 52.1764C124.328 52.5689 125.296 53.2007 126.077 54.0329C127.419 55.464 127.241 55.3867 129.302 60.3966C131.36 65.3955 132.189 71.482 133.738 72.1015C135.287 72.7211 149.019 74.3731 149.019 74.3731Z" fill="#FBD163"/>
<path d="M125.402 74.9866C124.396 73.7646 122.627 70.7657 122.796 67.9074C122.836 67.2276 122.159 67.9764 122.029 68.6434C121.48 71.4271 120.344 76.6475 119.041 79.553C117.199 83.6604 115.018 86.4978 115.018 86.4978H89.7526C89.7526 86.4978 88.4474 84.631 88.2739 80.0405C90.688 77.3022 96.9038 80.3316 101.523 77.2753C106.409 74.0394 111.365 75.2785 112.604 68.2573C113.843 61.2361 116.185 56.7612 118.56 60.0653C120.935 63.3694 122.956 61.581 123.369 64.8128C123.776 67.995 125.34 74.8317 125.402 74.9866Z" fill="#EDBF47"/>
<path d="M74.5655 96.0914C74.5655 99.6065 71.7159 102.456 68.2007 102.456C64.6855 102.456 61.8359 99.6065 61.8359 96.0914C61.8359 92.5761 64.6855 89.7266 68.2007 89.7266C71.7159 89.7266 74.5655 92.5761 74.5655 96.0914Z" fill="#F38AB2"/>
<path d="M66.6355 97.9958C66.5823 97.9958 66.5286 97.9794 66.4827 97.9451L63.9478 96.0532L66.5504 94.2314C66.6663 94.1502 66.8255 94.1785 66.9065 94.2943C66.9875 94.41 66.9594 94.5695 66.8437 94.6503L64.8206 96.0665L66.7885 97.5352C66.9018 97.6196 66.9251 97.7799 66.8405 97.8931C66.7903 97.9603 66.7134 97.9958 66.6355 97.9958Z" fill="#3A3E49"/>
<path d="M69.7661 97.9958C69.6882 97.9958 69.6112 97.9603 69.561 97.8931C69.4765 97.7799 69.4997 97.6196 69.613 97.5352L71.581 96.0665L69.5578 94.6503C69.4421 94.5695 69.414 94.41 69.495 94.2943C69.5759 94.1785 69.7353 94.1502 69.8511 94.2314L72.4538 96.0532L69.9188 97.9451C69.8729 97.9794 69.8193 97.9958 69.7661 97.9958Z" fill="#3A3E49"/>
<path d="M67.5952 97.9999C67.5699 97.9999 67.5442 97.9962 67.5188 97.9882C67.3841 97.9461 67.3089 97.8027 67.3511 97.668L68.3851 94.3614C68.4272 94.2266 68.5708 94.1508 68.7056 94.1936C68.8403 94.2358 68.9155 94.3792 68.8733 94.5139L67.8392 97.8205C67.8049 97.9299 67.7041 97.9999 67.5952 97.9999Z" fill="#3A3E49"/>
<path d="M162.561 93.8174C162.561 96.9402 160.03 99.4715 156.907 99.4715C153.784 99.4715 151.253 96.9402 151.253 93.8174C151.253 90.6946 153.784 88.1631 156.907 88.1631C160.03 88.1631 162.561 90.6946 162.561 93.8174Z" fill="#CBC0E0"/>
<path d="M154.572 91.0229H159.243V92.5252H158.82C158.756 92.2777 158.694 92.082 158.632 91.9381C158.57 91.7942 158.505 91.6849 158.435 91.6101C158.366 91.5352 158.292 91.482 158.213 91.4503C158.134 91.4186 158.015 91.4028 157.857 91.4028H157.309V95.8232C157.309 95.993 157.318 96.1283 157.337 96.229C157.356 96.3297 157.384 96.4095 157.423 96.4685C157.462 96.5275 157.515 96.5736 157.581 96.6067C157.647 96.6398 157.751 96.6722 157.892 96.7039V96.9154H155.919V96.7039C156.005 96.6838 156.081 96.6621 156.148 96.6391C156.214 96.6161 156.268 96.588 156.309 96.5549C156.351 96.5218 156.386 96.4794 156.413 96.4276C156.44 96.3758 156.462 96.3053 156.478 96.2161C156.494 96.1269 156.502 95.9959 156.502 95.8232V91.4028H155.958C155.822 91.4028 155.711 91.4158 155.623 91.4417C155.535 91.4676 155.454 91.5215 155.379 91.6035C155.304 91.6855 155.236 91.8021 155.174 91.9532C155.112 92.1043 155.054 92.295 154.999 92.5252H154.572V91.0229Z" fill="#3A3E49"/>
<path d="M90.7963 29.1901C90.7963 32.903 87.7864 35.9129 84.0735 35.9129C80.3606 35.9129 77.3507 32.903 77.3507 29.1901C77.3507 25.4772 80.3606 22.4673 84.0735 22.4673C87.7864 22.4673 90.7963 25.4772 90.7963 29.1901Z" fill="#E5E7E6"/>
<path d="M85.4212 30.2953L82.9489 31.3385L81.8378 30.214L82.9107 27.7544L86.198 26.1958L86.4761 26.4773L84.6888 28.2431C84.513 28.1678 84.3028 28.2015 84.1577 28.345C83.9656 28.5348 83.9622 28.8451 84.152 29.0372C84.3433 29.2307 84.6537 29.2312 84.8457 29.0414C84.9909 28.8979 85.0271 28.6883 84.9539 28.5115L86.7412 26.7456L87.0194 27.0271L85.4212 30.2953Z" fill="#3A3E49"/>
<path d="M82.4196 32.5124L80.6576 30.729L81.2685 30.1255L83.0305 31.9089L82.4196 32.5124Z" fill="#3A3E49"/>
<path d="M87.411 102.605L86.9236 105.325L79.4275 147.21H78.7378L83.7785 105.325L84.1069 102.605H87.411Z" fill="#A7ADBF"/>
<path d="M118.651 102.605L118.164 105.325L110.665 147.21H109.978L115.018 105.325L115.347 102.605H118.651Z" fill="#A7ADBF"/>
<path d="M131.741 147.21H131.054L123.556 105.325L123.068 102.605H126.372L126.701 105.325L131.741 147.21Z" fill="#A7ADBF"/>
<path d="M84.1068 102.605H87.4109L86.9235 105.325H83.7784L84.1068 102.605Z" fill="#959BAB"/>
<path d="M115.347 102.605H118.651L118.164 105.325H115.019L115.347 102.605Z" fill="#959BAB"/>
<path d="M126.7 105.325H123.555L123.068 102.605H126.372L126.7 105.325Z" fill="#959BAB"/>
<path d="M126.992 99.9897H83.9012C83.1789 99.9897 82.5933 100.575 82.5933 101.298C82.5933 102.02 83.1789 102.605 83.9012 102.605H126.992C127.714 102.605 128.3 102.02 128.3 101.298C128.3 100.575 127.714 99.9897 126.992 99.9897Z" fill="#A7ADBF"/>
<path d="M87.4109 100.817H84.1068L81.9777 82.0331L80.272 66.9872L80.1501 65.9175H80.8379L81.034 66.9583L83.8734 82.0331L87.4109 100.817Z" fill="#A7ADBF"/>
<path d="M118.651 100.817H115.347L113.216 82.0331L111.506 66.9583L111.388 65.9175H112.076L112.272 66.9583L115.112 82.0331L118.651 100.817Z" fill="#A7ADBF"/>
<path d="M117.599 80.682H82.7437C82.1283 80.682 81.6115 80.2187 81.5444 79.6069L80.1569 66.945C80.0786 66.2309 80.6377 65.6072 81.3561 65.6072H115.344C115.929 65.6072 116.43 66.0263 116.532 66.602L118.787 79.2639C118.919 80.0033 118.35 80.682 117.599 80.682Z" fill="#E5E7E6"/>
<path d="M83.8734 82.0328H81.9777L80.272 66.987C80.3566 66.9684 80.4434 66.958 80.5322 66.958H81.034L83.8734 82.0328Z" fill="#959BAB"/>
<path d="M115.112 82.0328H113.216L111.506 66.958H112.272L115.112 82.0328Z" fill="#959BAB"/>
<path d="M181.421 147.211H184.193V82.6436H181.421V147.211Z" fill="#A7ADBF"/>
<path d="M70.6158 147.211H73.3884V82.6436H70.6158V147.211Z" fill="#A7ADBF"/>
<path d="M116.775 80.9916H81.9193C81.3039 80.9916 80.787 80.5283 80.72 79.9165L79.3324 67.2546C79.2541 66.5405 79.8133 65.9167 80.5317 65.9167H114.52C115.105 65.9167 115.605 66.336 115.708 66.9117L117.963 79.5736C118.094 80.3129 117.526 80.9916 116.775 80.9916Z" fill="#A7ADBF"/>
<path d="M151.23 57.7255C151.23 57.8538 151.126 57.9579 150.998 57.9579C150.869 57.9579 150.765 57.8538 150.765 57.7255C150.765 57.5972 150.869 57.4932 150.998 57.4932C151.126 57.4932 151.23 57.5972 151.23 57.7255Z" fill="white"/>
<path d="M152.34 57.7255C152.34 57.8538 152.236 57.9579 152.108 57.9579C151.979 57.9579 151.875 57.8538 151.875 57.7255C151.875 57.5972 151.979 57.4932 152.108 57.4932C152.236 57.4932 152.34 57.5972 152.34 57.7255Z" fill="white"/>
<path d="M153.518 57.7255C153.518 57.8538 153.414 57.9579 153.285 57.9579C153.157 57.9579 153.053 57.8538 153.053 57.7255C153.053 57.5972 153.157 57.4932 153.285 57.4932C153.414 57.4932 153.518 57.5972 153.518 57.7255Z" fill="white"/>
<path d="M173.187 71.3647H149.458V56.752H173.187V71.3647Z" fill="#E5E7E6"/>
<path d="M173.187 58.3123H149.458V56.7517H173.187V58.3123Z" fill="#A7ADBF"/>
<path d="M162.512 69.2356H151.393V68.8774H162.512V69.2356Z" fill="white"/>
<path d="M162.512 67.1077H151.393V66.7495H162.512V67.1077Z" fill="white"/>
<path d="M162.512 64.9797H151.393V64.6216H162.512V64.9797Z" fill="white"/>
<path d="M162.512 62.8516H151.393V62.4934H162.512V62.8516Z" fill="white"/>
<path d="M162.512 60.7234H151.393V60.3652H162.512V60.7234Z" fill="white"/>
<path d="M171.218 69.2357H164.568V60.3652H171.218V69.2357Z" fill="white"/>
<path d="M154.074 50.742H139.854C139.595 50.742 139.385 50.5319 139.385 50.2728V46.4931C139.385 46.2339 139.595 46.0239 139.854 46.0239H154.074C154.333 46.0239 154.543 46.2339 154.543 46.4931V50.2728C154.543 50.5319 154.333 50.742 154.074 50.742Z" fill="#CBC0E0"/>
<path d="M143.018 48.3828C143.018 49.0406 142.485 49.5738 141.827 49.5738C141.169 49.5738 140.636 49.0406 140.636 48.3828C140.636 47.7251 141.169 47.1919 141.827 47.1919C142.485 47.1919 143.018 47.7251 143.018 48.3828Z" fill="white"/>
<path d="M153.214 48.5286H144.155V48.2368H153.214V48.5286Z" fill="white"/>
<path d="M148.936 49.4569H144.155V49.165H148.936V49.4569Z" fill="white"/>
<path d="M153.214 47.6324H144.155V47.3406H153.214V47.6324Z" fill="white"/>
<path d="M157.467 54.0244H144C143.754 54.0244 143.556 53.8255 143.556 53.58V50.0005C143.556 49.7551 143.754 49.5562 144 49.5562H157.467C157.712 49.5562 157.911 49.7551 157.911 50.0005V53.58C157.911 53.8255 157.712 54.0244 157.467 54.0244Z" fill="#7DD0E2"/>
<path d="M146.996 51.7897C146.996 52.4126 146.491 52.9176 145.868 52.9176C145.245 52.9176 144.74 52.4126 144.74 51.7897C144.74 51.1667 145.245 50.6619 145.868 50.6619C146.491 50.6619 146.996 51.1667 146.996 51.7897Z" fill="white"/>
<path d="M156.652 51.9282H148.072V51.6519H156.652V51.9282Z" fill="white"/>
<path d="M152.601 52.8071H148.072V52.5308H152.601V52.8071Z" fill="white"/>
<path d="M156.652 51.0794H148.072V50.803H156.652V51.0794Z" fill="white"/>
<path d="M161.787 57.2381H147.347C147.083 57.2381 146.87 57.0247 146.87 56.7615V52.9232C146.87 52.6601 147.083 52.4468 147.347 52.4468H161.787C162.05 52.4468 162.263 52.6601 162.263 52.9232V56.7615C162.263 57.0247 162.05 57.2381 161.787 57.2381Z" fill="#F38AB2"/>
<path d="M150.56 54.8422C150.56 55.5102 150.018 56.0517 149.35 56.0517C148.682 56.0517 148.141 55.5102 148.141 54.8422C148.141 54.1743 148.682 53.6328 149.35 53.6328C150.018 53.6328 150.56 54.1743 150.56 54.8422Z" fill="white"/>
<path d="M160.914 54.9907H151.714V54.6943H160.914V54.9907Z" fill="white"/>
<path d="M156.57 55.9328H151.714V55.6365H156.57V55.9328Z" fill="white"/>
<path d="M160.914 54.0803H151.714V53.7839H160.914V54.0803Z" fill="white"/>
<path d="M183.898 126.102C179.59 126.102 176.085 122.597 176.085 118.289C176.085 113.982 179.59 110.477 183.898 110.477C188.206 110.477 191.711 113.982 191.711 118.289C191.711 122.597 188.206 126.102 183.898 126.102Z" fill="#C2E7F0"/>
<path d="M187.132 121.524H180.663V115.055H187.132V121.524ZM180.87 121.317H186.926V115.261H180.87V121.317Z" fill="#3A3E49"/>
<path d="M184.105 122.591H183.692V113.943H184.105V122.591Z" fill="#3A3E49"/>
<path d="M188.221 118.495L179.573 118.453L179.575 118.04L188.223 118.082L188.221 118.495Z" fill="#3A3E49"/>
<path d="M148.172 133.545L137.248 114.21L137.428 114.108L148.352 133.443L148.172 133.545Z" fill="white"/>
<path d="M37.3782 109.443L36.8297 110.537L36.326 111.653L35.87 112.791L35.4678 113.946L35.1236 115.12L34.8437 116.31L34.6347 117.517L34.5059 118.732L34.4666 119.952L34.5265 121.17L34.696 122.378L34.9854 123.563L35.3994 124.708L35.9415 125.797L36.6078 126.815L37.3895 127.747L38.2746 128.587L39.2433 129.327L40.2804 129.969L41.3712 130.519L42.5046 130.985L43.6646 131.37L44.8464 131.685L46.044 131.937L47.2523 132.132L48.4701 132.277L49.6901 132.376L50.913 132.435L52.1373 132.456L53.3617 132.444L54.5881 132.402L55.8106 132.332L57.0315 132.236L58.2503 132.117L59.4693 131.976L60.679 131.815L61.7142 131.666L62.7454 131.504L63.328 131.404L63.8318 131.32L64.3341 131.239L64.8366 131.16L65.3398 131.085L65.8452 131.012L66.3499 130.942L66.8551 130.876L67.3607 130.812L67.8667 130.752L68.3743 130.695L68.8812 130.642L69.3884 130.593L69.896 130.547L70.4039 130.506L70.9132 130.468L71.4216 130.435L71.9303 130.406L72.4392 130.382L72.9496 130.362L73.4589 130.347" stroke="#858585" stroke-width="3" stroke-linecap="round" stroke-linejoin="round" stroke-dasharray="10 10"/>
<path d="M126.498 34.6048C126.498 34.6048 126.378 34.992 126.162 35.6144C125.448 37.6804 123.687 42.339 121.811 44.0374C120.38 45.3332 118.752 45.409 117.65 45.2499C116.848 45.1342 116.071 45.5825 115.756 46.3288L113.699 51.1994L105.638 47.689L109.033 42.0237L110.283 39.9379L115.268 30.1762L124.601 31.2649L126.498 34.6048Z" fill="#F6A49D"/>
<path d="M128.549 33.7087C127.384 34.7267 126.228 35.4235 126.228 35.4235C126.228 35.4235 123.524 34.2578 121.965 34.6997C121.471 34.8395 121.038 35.342 120.706 35.9894C120.706 35.9915 120.706 35.9915 120.706 35.9915C119.989 37.3819 119.735 39.4354 120.311 39.9642C121.157 40.7385 123.655 41.6017 123.758 42.4974C123.862 43.393 121.168 47.06 118.952 46.7184C114.781 46.076 117.494 42.2864 118.05 40.636C118.606 38.9857 119.317 37.3533 118.857 35.9483C118.397 34.5432 115.791 34.6031 115.459 37.0072C115.126 39.4113 116.537 38.9003 115.628 40.4574C115.628 40.4574 112.959 43.4142 109.034 42.0229C109.034 42.0229 109.776 39.796 109.784 38.4242C109.797 36.2232 108.735 34.3491 110.656 31.2467C112.577 28.1444 115.924 28.1215 117.23 28.9497C117.23 28.9497 119.925 24.1184 123.337 24.7243C126.748 25.3302 125.213 27.8018 125.213 27.8018C125.213 27.8018 129.183 26.2899 130.679 29.0632C131.515 30.614 130.026 32.4195 128.549 33.7087Z" fill="#3A3E49"/>
<path d="M128.549 33.709C127.384 34.727 126.228 35.4238 126.228 35.4238C126.228 35.4238 123.524 34.258 121.965 34.6999C121.471 34.8397 121.038 35.3423 120.706 35.9897C120.699 35.8973 120.558 33.3444 125.881 33.5163C126.749 33.5447 127.649 33.6144 128.549 33.709Z" fill="#24292F"/>
<path d="M104.07 48.9148C104.07 48.9148 104.689 45.3353 107.167 45.1977C109.645 45.0601 114.877 47.8822 115.496 50.3603C116.116 52.8384 104.07 48.9148 104.07 48.9148Z" fill="#EDBF47"/>
<path d="M35.2477 115.149L30.8778 115.946L42.0643 99.4434L35.2477 115.149Z" fill="#B4AAC7"/>
<path d="M41.1774 119.613L30.3368 108.649L43.1917 97.9844L41.1774 119.613Z" fill="#F0EBF7"/>
<path d="M43.1917 97.9844L37.2561 115.647L30.8777 115.946L35.0374 113.403L43.1917 97.9844Z" fill="#CBC0E0"/>
</svg>
