<svg width="343" height="241" viewBox="0 0 343 241" fill="none" xmlns="http://www.w3.org/2000/svg">
<g clip-path="url(#clip0_606_1149)">
<mask id="mask0_606_1149" style="mask-type:luminance" maskUnits="userSpaceOnUse" x="0" y="0" width="343" height="241">
<path d="M343 0H0V241H343V0Z" fill="white"/>
</mask>
<g mask="url(#mask0_606_1149)">
<path d="M311.752 226.901H28.7141V228.588H311.752V226.901Z" fill="#0E2E35"/>
<mask id="mask1_606_1149" style="mask-type:luminance" maskUnits="userSpaceOnUse" x="0" y="0" width="343" height="241">
<path d="M0 0H343V241H0V0Z" fill="white"/>
</mask>
<g mask="url(#mask1_606_1149)">
<path d="M48.6543 94.9225C48.9429 95.1474 49.2707 95.0297 50.0857 94.7454C51.5433 94.2371 53.0016 93.7285 54.4757 93.2715C54.7076 93.1996 55.103 93.316 55.2891 93.4888C56.3961 94.5165 57.4411 95.6111 58.5582 96.6272C58.9044 96.9421 59.032 97.1584 58.8879 97.6298C58.3122 99.514 57.7891 101.414 57.2526 103.288C58.7079 104.344 62.84 105.971 64.392 106.084C65.2247 104.401 66.1014 102.695 66.9098 100.956C67.1615 100.415 67.4026 100.269 68.0299 100.3C69.4852 100.372 70.9515 100.311 72.4082 100.221C72.9981 100.185 73.3713 100.233 73.679 100.82C74.4766 102.343 75.3666 103.817 76.1901 105.326C76.4114 105.732 76.6615 105.889 77.0892 105.701C79.1017 104.82 81.1128 103.935 83.125 103.053C83.6197 102.836 83.4021 102.464 83.3006 102.15C82.7869 100.562 82.2816 98.9709 81.7151 97.4017C81.5024 96.8125 81.6047 96.4697 82.0723 96.039C83.3097 94.8992 84.4728 93.6789 85.7572 92.3993C87.6301 92.9267 89.6979 93.5091 91.8234 94.1076C93.1383 91.9038 94.0074 89.5551 94.5333 86.988C92.6152 86.0321 90.6964 85.0757 89.0055 84.233C88.9145 82.2271 88.8714 80.3675 88.7204 78.5166C88.6766 77.9808 88.8183 77.7639 89.2477 77.5311C90.7382 76.7229 92.2034 75.8685 93.6884 75.05C94.0094 74.8731 94.2174 74.7115 94.0999 74.2955C93.5057 72.1935 92.7424 70.1698 91.5419 68.3234C91.2742 67.9119 91.0163 67.881 90.6049 68.0181C88.9483 68.5698 87.2812 69.0899 85.6271 69.6483C85.2264 69.7836 84.9937 69.7653 84.6541 69.4278C83.4764 68.2571 82.2465 67.1359 80.9908 66.0486C80.6699 65.7708 80.664 65.5601 80.7601 65.2197C81.2956 63.3228 81.817 61.422 82.3568 59.4738C80.1396 58.2203 77.8572 57.2509 75.3357 56.7251C74.3594 58.6792 73.3894 60.6206 72.4611 62.4786C70.3604 62.5229 68.3263 62.5658 66.1499 62.6117C65.4047 61.2991 64.5573 59.7805 63.6845 58.2767C62.9681 57.0425 63.241 57.0504 61.788 57.5251C61.6494 57.5704 61.4942 57.5655 61.3468 57.5839C60.1453 58.1217 58.9437 58.6595 57.7423 59.1971C57.4976 59.3645 57.2718 59.5759 57.0045 59.6909C56.3091 59.99 56.1093 60.3796 56.3978 61.1514C56.999 62.7595 57.4997 64.4061 58.0022 66.0489C58.068 66.2641 57.982 66.6221 57.8297 66.7916C56.8365 67.897 55.7446 68.9195 54.8131 70.0724C54.3573 70.6365 54.0023 70.6855 53.3714 70.4955C51.5819 69.9563 49.7702 69.4908 47.7862 68.9465C46.8536 71.3216 45.9439 73.6385 45.0239 75.9816C45.4474 76.2027 45.6891 76.3339 45.9351 76.4565C47.4522 77.2123 48.9628 77.9819 50.493 78.7105C50.9275 78.9173 51.0154 79.1688 51.022 79.6371C51.0446 81.2461 51.1708 82.8536 51.2043 84.4628C51.2095 84.7124 50.9997 85.0722 50.7821 85.203C49.5904 85.9189 48.3593 86.569 47.153 87.2614C46.1771 87.8216 45.8167 88.0331 45.7883 88.5343L48.6543 94.9225ZM56.0421 88.3302C54.1778 84.6162 53.8733 80.3993 55.1846 76.4565C56.4958 72.5136 59.266 69.3167 62.9846 67.4547C66.7032 65.5928 70.9253 65.2888 74.8729 66.5984C78.8207 67.9081 82.0214 70.6747 83.8856 74.3889C85.7498 78.1029 86.0544 82.3199 84.7431 86.2628C83.4318 90.2056 80.6617 93.4024 76.943 95.2644C73.2244 97.1262 69.0023 97.4305 65.0547 96.1208C61.107 94.8111 57.9063 92.0444 56.0421 88.3302Z" fill="#50BFA5"/>
</g>
<mask id="mask2_606_1149" style="mask-type:luminance" maskUnits="userSpaceOnUse" x="0" y="0" width="343" height="241">
<path d="M0 0H343V241H0V0Z" fill="white"/>
</mask>
<g mask="url(#mask2_606_1149)">
<path d="M177.055 64.1036L175.834 70.5828C175.936 70.9117 176.253 70.9965 177.037 71.2142C178.438 71.6034 179.839 71.9929 181.225 72.4307C181.443 72.4995 181.687 72.8016 181.737 73.0352C182.041 74.4242 182.26 75.832 182.577 77.2174C182.676 77.6468 182.658 77.8826 182.293 78.1698C180.834 79.3181 179.407 80.5072 177.984 81.6683C178.541 83.2659 180.861 86.743 182.001 87.663C183.55 86.8083 185.147 85.9591 186.707 85.0485C187.193 84.7652 187.458 84.7814 187.927 85.142C189.014 85.9786 190.181 86.7186 191.356 87.4311C191.832 87.7195 192.094 87.9576 192.016 88.577C191.814 90.1826 191.709 91.8 191.534 93.4095C191.487 93.842 191.596 94.0977 192.028 94.1824C194.059 94.5807 196.09 94.9762 198.121 95.374C198.62 95.4717 198.652 95.0668 198.742 94.7696C199.199 93.2659 199.665 91.7637 200.071 90.246C200.224 89.6761 200.487 89.4658 201.081 89.3838C202.651 89.1665 204.207 88.8469 205.889 88.5466C207.054 89.9597 208.34 91.52 209.662 93.1238C211.865 92.1252 213.801 90.7752 215.589 89.0718C214.62 87.303 213.65 85.5334 212.796 83.974C213.805 82.3736 214.772 80.9122 215.651 79.3995C215.905 78.9617 216.132 78.8698 216.589 78.9202C218.177 79.0953 219.77 79.2208 221.359 79.3849C221.702 79.4203 221.95 79.4071 222.083 79.0222C222.754 77.0775 223.253 75.1026 223.318 73.0302C223.332 72.5682 223.15 72.406 222.757 72.2911C221.179 71.8285 219.61 71.3359 218.03 70.88C217.648 70.7695 217.477 70.6307 217.396 70.1873C217.115 68.6498 216.767 67.1224 216.381 65.6074C216.283 65.2203 216.391 65.054 216.649 64.8422C218.083 63.6625 219.51 62.4724 220.975 61.2552C219.935 59.0957 218.691 57.1208 217.024 55.3606C215.217 56.348 213.423 57.329 211.705 58.2678C210.056 57.1745 208.46 56.1157 206.752 54.983C206.882 53.5678 207.043 51.9383 207.177 50.3068C207.287 48.9676 207.494 49.1203 206.115 48.7076C205.983 48.6683 205.866 48.5811 205.742 48.5162C204.524 48.2871 203.305 48.0581 202.086 47.8291C201.807 47.8272 201.519 47.8695 201.25 47.815C200.551 47.6731 200.187 47.8672 199.995 48.6189C199.595 50.1855 199.096 51.7277 198.601 53.2681C198.536 53.4699 198.276 53.7006 198.067 53.75C196.704 54.0719 195.31 54.2765 193.969 54.6683C193.313 54.86 193.012 54.7074 192.626 54.2217C191.532 52.8442 190.382 51.5118 189.14 50.0259C187.141 51.3624 185.19 52.6659 183.218 53.9843C183.427 54.3827 183.543 54.6139 183.667 54.8407C184.434 56.2397 185.188 57.646 185.98 59.0307C186.204 59.424 186.137 59.6655 185.89 60.0313C185.042 61.2879 184.275 62.5989 183.435 63.8615C183.304 64.0573 182.948 64.2231 182.71 64.2074C181.403 64.1215 180.101 63.9636 178.796 63.8516C177.739 63.7611 177.347 63.7312 177.055 64.1036ZM189.115 69.5575C190.206 63.766 195.791 59.9546 201.589 61.0443C207.388 62.134 211.204 67.7125 210.113 73.5039C209.022 79.2954 203.437 83.1067 197.639 82.017C191.84 80.9273 188.024 75.349 189.115 69.5575Z" fill="#F47458"/>
</g>
<mask id="mask3_606_1149" style="mask-type:luminance" maskUnits="userSpaceOnUse" x="0" y="0" width="343" height="241">
<path d="M0 0H343V241H0V0Z" fill="white"/>
</mask>
<g mask="url(#mask3_606_1149)">
<path d="M247.7 63.5593C245.646 82.3091 259.242 99.2414 278.008 101.304C296.774 103.367 313.713 89.7911 315.767 71.0414C317.821 52.2916 304.224 35.3593 285.458 33.2966C266.692 31.2337 249.754 44.8096 247.7 63.5593ZM256.212 63.3679L256.212 63.3679C258.378 49.2853 271.56 39.6297 285.655 41.8015C299.75 43.9735 309.421 57.1503 307.255 71.2328C305.089 85.3154 291.907 94.971 277.812 92.7992C263.717 90.6273 254.046 77.4504 256.212 63.3679Z" fill="#F7CC7F"/>
<path d="M224.215 66.9028C224.489 67.6895 225.262 67.8693 227.171 68.3328C230.587 69.1619 234.004 69.9913 237.387 70.9388C237.92 71.0879 238.531 71.7988 238.674 72.3594C239.519 75.6919 240.163 79.0763 241.041 82.3991C241.314 83.4289 241.29 84 240.432 84.7232C237 87.6144 233.649 90.6016 230.306 93.5209C231.782 97.3373 237.669 105.556 240.497 107.688C244.17 105.499 247.958 103.32 251.653 100.995C252.804 100.272 253.446 100.29 254.607 101.124C257.301 103.059 260.179 104.755 263.075 106.383C264.248 107.042 264.901 107.596 264.763 109.099C264.405 112.996 264.283 116.913 263.991 120.816C263.912 121.865 264.196 122.475 265.245 122.645C270.183 123.446 275.122 124.24 280.061 125.039C281.275 125.236 281.319 124.255 281.513 123.529C282.495 119.859 283.498 116.192 284.356 112.492C284.678 111.102 285.298 110.573 286.725 110.327C290.5 109.677 294.233 108.781 298.272 107.922C301.2 111.244 304.433 114.912 307.756 118.683C312.996 116.094 317.563 112.677 321.744 108.419C319.259 104.221 316.774 100.022 314.584 96.3215C316.891 92.3739 319.109 88.7651 321.11 85.0394C321.689 83.9611 322.228 83.7216 323.337 83.807C327.186 84.1035 331.045 84.2801 334.896 84.55C335.729 84.6084 336.326 84.5566 336.616 83.6159C338.08 78.8628 339.124 74.0505 339.113 69.037C339.11 67.9193 338.656 67.5418 337.699 67.2954C333.85 66.3035 330.019 65.238 326.166 64.2621C325.233 64.0255 324.81 63.7031 324.579 62.6384C323.775 58.9449 322.811 55.2816 321.755 51.6509C321.485 50.7234 321.734 50.3131 322.339 49.7811C325.709 46.8158 329.058 43.826 332.5 40.768C329.811 35.6319 326.647 30.9584 322.477 26.8375C318.193 29.3674 313.936 31.881 309.864 34.2863C305.792 31.7754 301.851 29.3442 297.633 26.7428C297.832 23.3124 298.09 19.3621 298.282 15.4084C298.439 12.1634 298.951 12.5155 295.586 11.6281C295.265 11.5433 294.974 11.3424 294.669 11.1953C291.707 10.7389 288.745 10.2825 285.783 9.82597C285.108 9.84386 284.415 9.96893 283.761 9.85852C282.062 9.57129 281.198 10.0693 280.795 11.9013C279.955 15.7189 278.875 19.4856 277.804 23.2474C277.664 23.7403 277.056 24.3185 276.555 24.4544C273.289 25.3408 269.937 25.9466 266.73 26.9998C265.16 27.5153 264.421 27.1706 263.45 26.0275C260.696 22.7857 257.808 19.6571 254.688 16.1651C249.967 19.554 245.362 22.8597 240.705 26.2027C241.241 27.1488 241.54 27.6982 241.859 28.2366C243.825 31.5563 245.761 34.8944 247.785 38.178C248.36 39.1103 248.217 39.6997 247.65 40.6031C245.703 43.7075 243.956 46.9368 242.029 50.0549C241.731 50.5385 240.884 50.9674 240.307 50.9484C237.143 50.8449 233.985 50.5667 230.822 50.4002C228.263 50.2653 227.313 50.2244 226.638 51.1475L224.215 66.9028ZM246.494 63.4268C247.525 54.0222 252.159 45.5834 259.543 39.6651C266.927 33.7466 276.178 31.057 285.59 32.0916C295.003 33.1264 303.451 37.7614 309.379 45.1431C315.306 52.5247 318.003 61.7695 316.972 71.174C315.942 80.5786 311.308 89.0173 303.924 94.9358C296.539 100.854 287.289 103.544 277.876 102.509C268.464 101.474 260.015 96.8393 254.088 89.4576C248.161 82.0761 245.464 72.8315 246.494 63.4268Z" fill="#F7CC7F"/>
</g>
<mask id="mask4_606_1149" style="mask-type:luminance" maskUnits="userSpaceOnUse" x="0" y="0" width="343" height="241">
<path d="M0 0H343V241H0V0Z" fill="white"/>
</mask>
<g mask="url(#mask4_606_1149)">
<mask id="mask5_606_1149" style="mask-type:luminance" maskUnits="userSpaceOnUse" x="17" y="19" width="316" height="209">
<path d="M332.986 19.2798H17.3732V227.504H332.986V19.2798Z" fill="white"/>
</mask>
<g mask="url(#mask5_606_1149)">
<path d="M186.297 68.2124H165.005C162.826 68.2124 161.06 69.9768 161.06 72.1532V79.1208C161.06 81.2973 162.826 83.0616 165.005 83.0616H186.297C188.476 83.0616 190.243 81.2973 190.243 79.1208V72.1532C190.243 69.9768 188.476 68.2124 186.297 68.2124Z" fill="#5184CE"/>
<path d="M158.091 214.588L135.54 224.969V227.269H215.851V224.969L193.097 214.588H158.091Z" fill="#466EB6"/>
<path d="M193.111 214.607H158.091V170.09H193.111V214.607Z" fill="#466EB6"/>
<path d="M281.571 184.055V83.6704C281.571 78.9008 277.7 75.0342 272.924 75.0342H78.0499C73.2744 75.0342 69.4031 78.9008 69.4031 83.6704V184.055H281.571Z" fill="#466EB6"/>
<path d="M193.097 209.364H158.091V214.588H193.097V209.364Z" fill="#184655"/>
<path d="M69.4031 184.055V200.141C69.4031 203.487 71.6176 206.2 74.3491 206.2H276.625C279.357 206.2 281.571 203.487 281.571 200.141V184.055H69.4031Z" fill="#5184CE"/>
<path d="M177.792 72.1559C177.792 73.2424 176.91 74.1233 175.822 74.1233C174.734 74.1233 173.852 73.2424 173.852 72.1559C173.852 71.0693 174.734 70.1885 175.822 70.1885C176.91 70.1885 177.792 71.0693 177.792 72.1559Z" fill="#7A949D"/>
<path d="M276.605 179.696V83.9386C276.605 81.4284 274.494 79.3936 271.89 79.3936H79.084C76.4802 79.3936 74.3696 81.4284 74.3696 83.9386V179.696H276.605Z" fill="#CCE6FF"/>
<path d="M135.54 227.269H215.851V224.97H135.54V227.269ZM0 0H343V241H0V0ZM0 241H343V0H0V241Z" fill="#184655"/>
<path d="M263.826 171.933H263.63V170.745H263.826V171.933Z" fill="#466EB6"/>
<path d="M253.525 171.86H250.304V146.957H253.525V171.86Z" fill="#466EB6"/>
<path d="M244.125 172.408H237.049V134.392H244.125V172.408Z" fill="#466EB6"/>
<path d="M233.088 172.449H224.973V121.372H233.088V172.449Z" fill="#466EB6"/>
<path d="M220.175 172.288H214.565V147.449H220.175V172.288Z" fill="#466EB6"/>
<path d="M251.997 172.554H252.193V171.386H251.997V172.554ZM246.13 168.475H254.242V174.175H246.13V168.475ZM246.13 174.175H254.242V168.475H246.13V174.175Z" fill="#9BC1F9"/>
<path d="M242.234 172.289H239.012V158.97H242.234V172.289Z" fill="#9BC1F9"/>
<path d="M232.573 172.377H225.498V138.106H232.573V172.377Z" fill="#9BC1F9"/>
<path d="M221.506 172.447H213.391V144.795H221.506V172.447Z" fill="#9BC1F9"/>
<path d="M204.804 171.837H83.2506V87.1235H204.804V171.837Z" fill="#E9FFFF"/>
<path d="M204.804 97.0421H83.2506V87.1235H204.804V97.0421Z" fill="#5184CE"/>
<path d="M199.638 115.509H87.4446V101.127H199.638V115.509Z" fill="#9BC1F9"/>
<path d="M121.165 162.135H87.2719V119.594H121.165V162.135Z" fill="#5184CE"/>
<path d="M214.541 104.595H232.042V87.1155H214.541V104.595ZM0 0H343V241H0V0ZM0 241H343V0H0V241Z" fill="#9BC1F9"/>
<path d="M259.886 88.8H235.122V87.0771H259.886V88.8Z" fill="#9BC1F9"/>
<path d="M253.002 93.9318H235.152V92.0918H253.002V93.9318Z" fill="#9BC1F9"/>
<path d="M243.397 97.8253H234.973V97.1729H243.397V97.8253Z" fill="#9BC1F9"/>
</g>
</g>
<mask id="mask6_606_1149" style="mask-type:luminance" maskUnits="userSpaceOnUse" x="-45" y="86" width="146" height="170">
<path d="M-44.2791 86.3862H100.498V255.086H-44.2791V86.3862Z" fill="white"/>
</mask>
<g mask="url(#mask6_606_1149)">
<path d="M21.8956 217.848C21.8956 217.848 21.6881 221.647 21.2849 222.838C21.069 223.475 20.1736 224.727 20.4193 225.386C20.665 226.046 21.0194 226.25 21.0194 226.25L29.5034 227.52C29.9655 227.589 29.6996 227.249 29.363 226.924C28.8121 226.391 28.3588 226.026 26.5331 224.817C26.4141 224.739 25.9901 224.381 25.8366 224.256C25.4475 223.939 25.0764 223.473 24.7648 223.014C24.2455 222.25 24.6352 218.931 24.6352 218.931L21.8956 217.848Z" fill="#F7A491"/>
<path d="M25.8361 224.254C23.5098 224.534 21.9002 223.919 21.0208 223.418C20.6896 224.069 20.2572 224.883 20.3597 225.4C20.4852 226.032 20.7609 226.208 21.0196 226.249C23.0663 226.577 28.5264 227.38 30.0898 227.609C30.3081 227.641 30.4631 227.401 30.3451 227.213C30.019 226.695 25.9899 224.379 25.8361 224.254Z" fill="#F7CC7F"/>
<path d="M22.2833 168.749C22.2833 168.749 20.1696 173.715 20.1466 177.509C20.1235 181.303 23.4045 192.35 22.9468 197.4C22.699 200.134 20.6858 204.654 20.8855 208.092C21.0852 211.53 21.063 220.634 21.063 220.634L24.9165 220.694L29.5127 197.126L32.6349 176.013L32.4888 165.46L22.2833 168.749Z" fill="#F47458"/>
<path d="M21.6553 217.148C21.6553 217.148 21.5105 220.952 21.127 222.149C20.9216 222.789 20.0471 224.056 20.3035 224.712C20.5601 225.367 20.9178 225.565 20.9178 225.565L29.4207 226.694C29.8838 226.755 29.6123 226.419 29.2705 226.1C28.711 225.576 28.2517 225.219 26.4066 224.041C26.2863 223.964 25.8565 223.613 25.701 223.491C25.3068 223.181 24.9281 222.721 24.609 222.267C24.0772 221.512 24.4122 218.187 24.4122 218.187L21.6553 217.148Z" fill="#F7A491"/>
<path d="M34.163 167.839C34.163 167.839 34.5198 174.081 33.3469 178.01C32.1741 181.939 24.4488 218.723 24.4488 218.723L20.6691 218.499C20.6691 218.499 21.6976 202.878 22.091 200.734C22.4842 198.591 24.021 195.107 24.021 195.107L25.1131 182.525L31.7771 166.604L34.163 167.839Z" fill="#E25A44"/>
<path d="M25.7007 223.489C23.3794 223.808 21.7599 223.219 20.8724 222.733C20.552 223.39 20.133 224.211 20.2441 224.726C20.38 225.356 20.6585 225.528 20.9178 225.565C22.9696 225.859 28.4421 226.57 30.0091 226.773C30.2279 226.802 30.3789 226.558 30.2578 226.373C29.9232 225.86 25.8565 223.611 25.7007 223.489Z" fill="#F7CC7F"/>
<path d="M47.3117 157.481C47.4697 157.146 45.8032 156.689 45.7495 156.327C45.6958 155.965 47.9298 156.169 48.0419 155.868C48.2483 155.313 45.6089 155.495 45.6876 155.233C45.7664 154.972 48.479 154.651 48.2399 154.164C48.001 153.677 45.462 154.79 45.4217 154.472C45.3813 154.154 47.876 153.649 47.9034 152.964C47.918 152.598 43.7494 154.367 43.3126 154.122C42.8758 153.877 44.0025 152.265 43.6648 151.974C43.3271 151.683 41.8641 155.052 41.5999 155.151C41.3367 155.249 35.6161 156.976 33.6708 157.263C33.5867 156.926 33.628 153.957 32.8448 151.173C32.0976 148.517 30.5242 146.04 30.4554 145.737C27.2647 144.949 26.1789 148.203 28.1369 152.929C28.7252 155.001 30.0465 161.707 30.5745 162.014C32.1821 162.95 40.6401 158.488 42.0381 157.698C43.4376 156.907 44.1522 157.285 45.0637 157.084C45.9754 156.883 47.1538 157.817 47.3117 157.481Z" fill="#F38B80"/>
<path d="M32.2616 137.373C32.687 135.441 33.1037 133.497 31.9821 131.375C31.0745 129.658 29.5054 128.67 27.6893 128.454C22.544 127.845 23.1905 130.339 18.1082 134.565C15.0762 138.264 9.15661 133.446 2.84407 129.82C-3.83189 125.959 -15.2274 130.713 -10.2158 140.645C-7.34825 146.353 1.85585 148.568 11.4429 148.185C15.7653 147.95 21.3565 146.9 24.3402 145.442C25.9787 144.637 28 145.779 28.4276 145.293C30.4089 143.042 31.9877 138.616 32.2616 137.373Z" fill="#0E2E35"/>
<path d="M24.1633 143.469C24.1633 143.469 21.5652 143.764 20.0111 145.452C18.4572 147.141 22.5231 160.712 22.8057 162.861C23.0882 165.01 20.1037 170.957 20.1037 170.957C20.1037 170.957 30.2491 172.972 32.8865 171.232C32.8865 171.232 33.1181 154.623 32.8356 153.088C32.553 151.553 30.1982 145.311 29.6331 144.697C29.068 144.083 24.1633 143.469 24.1633 143.469Z" fill="#F7CC7F"/>
<path d="M25.471 138.237C25.471 138.237 25.4506 138.353 25.4142 138.549C25.239 139.49 24.5645 142.613 24.1089 143.472C23.5583 144.509 25.9939 147.818 28.3383 147.414C29.0361 147.294 27.7483 144.374 27.8104 144.064C27.9287 143.472 28.0894 142.665 28.2537 141.836C28.3465 141.369 28.4404 140.895 28.5287 140.45C28.7793 139.185 28.9839 138.15 28.9839 138.15L25.471 138.237Z" fill="#F7A491"/>
<path d="M24.6955 154.483L35.5746 156.073C35.9017 156.121 36.128 156.424 36.0801 156.751L33.9568 171.247C33.9089 171.574 33.605 171.8 33.2781 171.752L22.3988 170.163C22.0719 170.115 21.8454 169.811 21.8932 169.485L24.0166 154.988C24.0644 154.662 24.3684 154.436 24.6955 154.483Z" fill="#184655"/>
<path d="M32.81 155.189C32.8197 155.122 32.7738 155.061 32.7075 155.051L28.1696 154.388C28.1033 154.378 28.0418 154.424 28.032 154.49L27.963 154.961L32.741 155.66L32.81 155.189Z" fill="#13375B"/>
<path d="M30.5224 154.147C30.1272 154.089 29.76 154.362 29.7022 154.757C29.6444 155.152 29.9179 155.519 30.3131 155.576C30.7084 155.634 31.0756 155.361 31.1335 154.966C31.1913 154.571 30.9178 154.205 30.5224 154.147ZM30.3506 155.32C30.0972 155.283 29.9217 155.048 29.9588 154.795C29.9959 154.541 30.2314 154.366 30.4849 154.403C30.7384 154.44 30.9138 154.675 30.8768 154.929C30.8397 155.182 30.6042 155.357 30.3506 155.32Z" fill="#13375B"/>
<path d="M32.8099 155.189L32.7408 155.659L27.9629 154.961C27.915 155.288 28.1413 155.591 28.468 155.639L32.0627 156.164C32.3894 156.212 32.693 155.986 32.7408 155.659L32.8099 155.189Z" fill="#355389"/>
<path d="M25.4141 138.549C25.4507 138.353 25.471 138.237 25.471 138.237L28.9839 138.15C28.9839 138.15 28.7792 139.185 28.5285 140.45C28.4408 140.893 28.3474 141.364 28.2553 141.829C27.713 141.749 27.1462 141.486 26.5779 140.99C25.9585 140.45 25.5525 139.8 25.3075 139.107C25.3508 138.886 25.387 138.695 25.4141 138.549Z" fill="#F47458"/>
<path d="M27.584 129.898C27.584 129.898 26.1515 130.097 25.1135 131.435C24.0756 132.773 22.9568 136.911 25.5352 139.16C28.1134 141.41 30.6608 138.864 31.0385 136.164C31.4163 133.464 31.34 129.801 27.584 129.898Z" fill="#F7A491"/>
<path d="M31.7905 135.497C31.6278 136.148 31.2009 136.588 30.8367 136.479C30.4726 136.371 30.3094 135.755 30.472 135.104C30.6345 134.453 31.0615 134.013 31.4257 134.122C31.7897 134.23 31.9531 134.846 31.7905 135.497Z" fill="#F7A491"/>
<path d="M29.1753 129.91C29.1753 129.91 25.8084 133.771 24.226 133.953C22.6434 134.134 22.4357 136.225 22.4357 136.225C22.4357 136.225 23.0015 131.407 24.5681 130.478C26.1348 129.549 29.1753 129.91 29.1753 129.91Z" fill="#0E2E35"/>
<path d="M24.7434 134.89C24.8721 135.589 24.6132 136.23 24.1653 136.321C23.7173 136.413 23.2498 135.921 23.1212 135.222C22.9924 134.523 23.2512 133.883 23.6992 133.791C24.1473 133.699 24.6148 134.191 24.7434 134.89Z" fill="#F7A491"/>
<path d="M29.4266 137.501L26.9783 137.488C26.9783 137.488 27.0298 138.417 28.1063 138.454C29.419 138.499 29.4266 137.501 29.4266 137.501Z" fill="white"/>
<path d="M17.0629 158.191L21.0048 158.593C21.0048 158.593 20.9407 161.935 21.0082 162.319C21.0082 162.319 27.7491 164.185 30.5664 164.691C30.5664 164.691 31.8492 163.965 32.368 163.734C32.887 163.504 34.2821 163.252 34.5904 163.211C34.8989 163.171 34.7936 163.509 34.5287 163.626C34.2637 163.744 33.5783 164.067 33.384 164.462C33.384 164.462 33.9403 164.523 34.2348 164.392C34.5292 164.261 34.9346 163.983 34.9412 163.839C34.9476 163.696 35.0146 163.349 35.1113 163.368C35.1359 163.372 35.1687 163.486 35.2018 163.605C35.2332 163.718 35.2664 163.834 35.2941 163.948C35.3435 164.153 35.4003 164.453 35.4224 164.587C35.4729 164.894 35.2851 165.74 35.2587 166.041C35.2104 166.59 35.0535 166.834 34.7633 166.974C34.2955 167.136 33.8008 167.24 33.0691 167.316C31.7283 167.454 30.4958 167.069 29.9582 167.008C29.4205 166.948 20.837 166.098 20.837 166.098C20.837 166.098 17.4248 165.607 17.1984 165.021C16.9721 164.434 17.0629 158.191 17.0629 158.191Z" fill="#F7A491"/>
<path d="M20.4873 144.962C20.4873 144.962 19.2431 145.551 18.1494 148.096C17.1102 150.514 16.8048 162.584 16.8048 162.584L20.9282 161.897L23.0236 156.27C24.5171 152.902 24.1315 148.98 21.9555 146.006C21.375 145.213 20.8403 144.733 20.4873 144.962Z" fill="#F7CC7F"/>
</g>
<mask id="mask7_606_1149" style="mask-type:luminance" maskUnits="userSpaceOnUse" x="183" y="49" width="182" height="218">
<path d="M183.81 49.2847H364.781V266.185H183.81V49.2847Z" fill="white"/>
</mask>
<g mask="url(#mask7_606_1149)">
<path d="M299.969 218.067C299.969 218.067 301.176 219.244 301.204 219.675C301.231 220.107 301.311 224.733 300.818 225.165C300.325 225.597 298.877 225.903 299.343 226.389C299.694 226.756 302.401 226.678 304.194 226.579C304.718 226.55 305.375 222.378 305.582 221.765C305.883 220.874 306.616 218.868 306.342 218.247C306.208 217.944 305.57 217.323 304.671 216.742C303.725 216.132 302.82 214.773 302.82 214.773L299.969 218.067Z" fill="#F48C7F"/>
<path d="M304.612 216.713C304.612 216.713 301.83 224.538 300.74 224.916C300.451 225.016 299.063 225.271 298.801 225.884C298.723 226.069 298.801 226.685 298.801 226.685H304.602C304.602 226.685 305.335 223.237 305.625 221.722C305.625 221.722 307.16 218.021 306.99 217.685C306.819 217.348 304.612 216.713 304.612 216.713Z" fill="#F47458"/>
<path d="M287.462 220.807C287.462 220.807 288.543 223.856 288.544 223.863C288.624 224.346 288.941 225.54 288.941 225.979C288.941 227.628 281.493 224.579 283.162 223.847C283.313 223.781 283.787 223.253 283.837 222.692C283.913 221.827 283.209 220.742 283.209 220.742L287.462 220.807Z" fill="#F7A491"/>
<path d="M289.364 226.523L288.511 223.832C288.511 223.832 286.72 224.589 285.824 224.463C284.929 224.337 283.18 223.832 283.18 223.832C279.605 225.007 276.677 225.577 277.21 226.523H289.364Z" fill="#F47458"/>
<path d="M276.381 165.606C275.492 167.128 275.235 169.504 275.235 169.586C275.235 178.426 273.48 195.695 273.814 197.357C274.628 201.411 283.389 222.092 283.389 222.092L288.125 221.526L283.042 196.536L284.225 186.8C284.225 186.8 287.913 170.319 287.438 167.1C286.963 163.88 279.362 160.506 276.381 165.606Z" fill="#50BFA5"/>
<path d="M291.67 168.873L292.569 174.053L295 195.371L304.257 216.206C304.257 216.206 302.955 219.237 301.034 219.663L286.299 198.272L277.147 170.9C277.147 170.9 274.729 166.12 280.484 164.096C286.239 162.073 291.67 168.873 291.67 168.873Z" fill="#96D9C9"/>
<path d="M272.443 158.185L265.651 152.776L265.648 152.778C265.588 152.582 264.944 150.478 264.912 150.102C264.88 149.707 263.732 149.016 263.199 149.118C262.666 149.219 263.655 149.887 263.719 150.01C263.896 150.344 263.213 150.469 263.213 150.469C263.213 150.469 261.273 149.848 261.231 149.215C261.21 148.891 260.24 149.239 261.071 150.253C260.119 148.757 259.943 150.445 260.019 150.563C260.171 150.8 263.341 153.35 263.798 153.904C263.798 153.904 271.966 163.191 272.606 163.415C273.933 163.88 275.426 162.942 275.075 161.411C274.536 159.06 272.443 158.185 272.443 158.185Z" fill="#F7A491"/>
<path d="M279.683 145.397C278.87 144.963 273.905 148.397 274.135 149.212C274.366 150.027 272.074 158.809 272.074 158.809C272.074 158.809 271.414 160.552 271.745 161.798C272.157 163.355 273.487 163.586 273.855 163.663C274.438 163.785 275.818 160.922 277.193 158.317C278.568 155.712 282.224 146.755 279.683 145.397Z" fill="#F7A491"/>
<path d="M273.89 151.027L280.456 151.696C280.456 151.696 280.757 146.32 280.757 143.755C280.757 140.644 280.483 137.723 280.146 137.536C279.031 136.918 277.638 137.547 276.791 138.708C273.862 142.729 273.89 151.027 273.89 151.027Z" fill="#B75742"/>
<path d="M277.115 143.206C276.978 144.155 274.454 169.945 274.454 169.945C286.409 175.712 293.006 170.973 293.006 170.973C293.006 170.973 292.615 152.862 293.084 150.397C293.394 148.767 293.781 137.93 292.723 137.626C291.365 137.237 289.808 136.823 288.111 136.647C286.663 136.497 280.659 136.692 279.742 137.154C279.742 137.154 277.694 139.217 277.115 143.206Z" fill="#F47458"/>
<path d="M286.513 131.662L287.284 136.735C287.284 136.735 284.469 142.775 282.789 142.252C281.379 141.812 282.247 136.467 282.247 136.467C282.247 136.467 283.015 133.597 282.785 132.161C282.554 130.724 286.513 131.662 286.513 131.662Z" fill="#F7A491"/>
<path d="M282.784 132.161C282.554 130.724 286.513 131.662 286.513 131.662L286.577 132.083C286.461 132.364 286.319 132.605 286.147 132.79C285.263 133.74 283.881 134.311 282.686 134.354C282.805 133.58 282.879 132.75 282.784 132.161Z" fill="#F47458"/>
<path d="M287.162 124.485C287.274 124.445 288.059 130.263 286.57 131.864C285.08 133.465 282.178 133.989 281.137 132.728C279.985 131.333 280.043 125.08 282.359 123.433C284.675 121.786 287.162 124.485 287.162 124.485Z" fill="#F7A491"/>
<path d="M283.241 120.32C285.031 120.685 286.19 121.777 286.616 122.243C287.429 122.339 288.534 122.788 289.675 124.674C291.077 126.994 290.041 129.564 288.409 130.825C286.776 132.086 286.798 133.542 286.798 133.542L286.54 132.789C286.35 132.218 286.272 131.613 286.336 131.014C286.374 130.655 286.451 130.267 286.6 129.947C286.993 129.105 285.756 128.546 285.41 127.845C285.143 127.306 285.13 126.071 284.709 125.18L284.207 124.499C284.207 124.499 283.048 123.598 281.915 123.853C280.781 124.107 280.944 119.852 283.241 120.32Z" fill="#0E2E35"/>
<path d="M285.486 128.881C285.474 129.591 285.797 130.172 286.207 130.179C286.618 130.186 286.96 129.616 286.972 128.906C286.984 128.196 286.661 127.615 286.25 127.608C285.84 127.601 285.498 128.171 285.486 128.881Z" fill="#F7A491"/>
<path d="M283.067 130.521L280.821 130.405C280.821 130.405 280.829 131.259 281.815 131.339C283.017 131.436 283.067 130.521 283.067 130.521Z" fill="white"/>
<path d="M264.694 143.786C265.221 143.247 265.713 142.69 266.171 142.122L275.971 151.68C276.573 152.268 276.366 153.456 275.508 154.333C274.65 155.211 273.466 155.446 272.864 154.859L263.063 145.3C263.621 144.83 264.167 144.325 264.694 143.786Z" fill="#0E2E35"/>
<g opacity="0.530621">
<path d="M229.441 143.907C239.268 153.492 254.967 153.355 264.505 143.601C274.043 133.846 273.808 118.168 263.981 108.582C254.154 98.9969 238.456 99.1339 228.918 108.888C219.38 118.643 219.614 134.321 229.441 143.907Z" fill="#C5DDF9"/>
</g>
<path d="M227.187 146.212C238.297 157.049 256.044 156.894 266.827 145.866C277.61 134.838 277.345 117.114 266.235 106.277C255.126 95.4406 237.378 95.5955 226.595 106.623C215.812 117.651 216.077 135.375 227.187 146.212ZM229.441 143.907C219.614 134.321 219.38 118.643 228.918 108.889C238.456 99.1339 254.154 98.9969 263.981 108.582C273.808 118.168 274.043 133.846 264.505 143.6C254.967 153.355 239.268 153.492 229.441 143.907Z" fill="#184655"/>
<path d="M228.372 145C238.808 155.179 255.478 155.033 265.607 144.675C275.735 134.317 275.486 117.668 265.05 107.489C254.615 97.3098 237.945 97.4553 227.816 107.814C217.688 118.172 217.937 134.821 228.372 145ZM229.441 143.907C219.614 134.321 219.38 118.643 228.918 108.888C238.456 99.1338 254.154 98.9968 263.981 108.582C273.808 118.168 274.043 133.846 264.505 143.6C254.967 153.355 239.268 153.492 229.441 143.907Z" fill="#50BFA5"/>
<path d="M306.408 185.733L307.931 184.155C309.452 182.579 309.407 180.068 307.828 178.548L279.535 151.151C277.956 149.631 275.443 149.677 273.921 151.253L272.398 152.831C270.875 154.408 270.922 156.918 272.5 158.438L300.794 185.836C302.372 187.356 304.886 187.31 306.408 185.733Z" fill="#184655"/>
<path d="M304.847 170.219C304.855 170.163 304.856 170.108 304.85 170.053C304.674 168.266 303.189 153.269 302.939 152.631C302.714 152.056 296.055 142.543 296.055 142.543L292.782 146.997L299.186 155.529C299.329 156.071 301.64 166.195 301.64 166.195C301.64 166.195 302.113 168.041 302.326 169.146C302.229 169.412 302.134 169.664 302.05 169.87C301.838 170.311 301.587 170.673 301.36 170.978C301.073 171.361 300.6 172.198 300.542 172.422C300.474 172.683 300.352 173.224 300.283 173.551C300.213 173.877 300.119 174.258 300.103 174.435C300.093 174.543 299.982 174.758 299.896 174.91C299.768 175.137 299.986 175.404 300.233 175.322C300.466 175.245 300.647 174.944 300.758 174.756C301.074 174.227 301.242 173.261 301.32 173.313C301.398 173.364 301.675 175.003 301.718 175.188C301.762 175.373 302.093 177.276 302.28 177.624C302.467 177.972 302.714 177.914 302.78 177.696C302.836 177.509 302.573 174.846 302.573 174.846C302.573 174.846 302.541 174.506 302.69 174.612C302.839 174.718 303.082 177.136 303.186 177.489C303.289 177.843 303.525 178.03 303.726 177.746C303.97 177.4 303.55 174.836 303.55 174.836C303.55 174.836 303.503 174.514 303.641 174.544C303.779 174.574 303.952 176.634 304.059 176.812C304.166 176.991 304.437 177.054 304.566 176.758C304.718 176.408 304.325 174.122 304.325 174.122C304.325 174.122 304.344 173.94 304.43 174C304.516 174.061 304.789 175.807 304.967 175.968C305.116 176.104 305.24 175.972 305.24 175.972C305.567 175.75 305.066 174.089 305.071 173.264C305.076 172.438 304.693 171.51 304.807 170.527C304.814 170.465 304.835 170.314 304.847 170.219Z" fill="#F8A492"/>
<path d="M301.257 148.568L295.569 152.382C295.569 152.382 292.363 147.617 290.642 145.921C288.486 143.796 291.427 137.286 292.816 137.655C295.923 138.478 301.257 148.568 301.257 148.568Z" fill="#F47458"/>
</g>
</g>
</g>
<defs>
<clipPath id="clip0_606_1149">
<rect width="343" height="241" fill="white"/>
</clipPath>
</defs>
</svg>
