<svg width="120" height="24" viewBox="0 0 120 24" fill="none" xmlns="http://www.w3.org/2000/svg">
<path d="M43.7363 21.2936C46.0989 21.2936 47.2802 20.5312 47.2802 19.0065C47.2802 18.534 47.0461 18.1797 46.5778 17.9434C46.1095 17.6857 45.5136 17.4602 44.7899 17.267C44.0875 17.0737 43.3212 16.8804 42.4911 16.6871C41.661 16.4724 40.884 16.1824 40.1604 15.8174C39.4579 15.4523 38.8726 14.9798 38.4043 14.4C37.9361 13.7987 37.7019 13.0685 37.7019 12.2095C37.7019 11.3505 37.8296 10.6096 38.0851 9.98676C38.3405 9.36399 38.7236 8.82711 39.2345 8.37611C40.3626 7.40972 41.927 6.92653 43.9278 6.92651C45.5242 6.92653 47.0674 7.19498 48.5573 7.73185C48.8553 7.83924 49.0788 8.01104 49.2278 8.24725C49.3981 8.4835 49.4832 8.75195 49.4832 9.05259C49.4832 9.33178 49.3555 9.60022 49.1001 9.85791C48.866 10.1156 48.6318 10.2445 48.3977 10.2445C48.1635 10.2445 47.8762 10.1908 47.5357 10.0834C46.514 9.76129 45.3965 9.60022 44.1832 9.60021C42.97 9.60022 42.0441 9.81498 41.4055 10.2445C40.7883 10.674 40.4796 11.1894 40.4796 11.7907C40.4796 12.392 40.7138 12.843 41.182 13.1437C41.6716 13.4229 42.2676 13.6591 42.97 13.8524C43.6724 14.0456 44.4387 14.2389 45.2688 14.4322C46.1202 14.6255 46.8971 14.8939 47.5995 15.2375C49.2597 16.0965 50.0899 17.428 50.0899 19.232C50.0899 20.6064 49.579 21.7231 48.5573 22.5821C47.4505 23.5271 45.9073 23.9995 43.9278 23.9995C41.778 23.9995 39.8411 23.5163 38.117 22.5499C37.7551 22.2922 37.5742 21.9701 37.5742 21.5835C37.5742 21.197 37.6913 20.8748 37.9254 20.6171C38.1596 20.338 38.415 20.1984 38.6917 20.1984C38.9684 20.1984 39.2983 20.2843 39.6814 20.4561C40.916 21.0144 42.2676 21.2936 43.7363 21.2936Z" fill="white"/>
<path d="M54.8866 16.4938C55.0568 17.9542 55.5996 19.1139 56.5149 19.9729C57.4301 20.8319 58.7072 21.2614 60.3462 21.2614C61.9851 21.2614 63.358 20.9822 64.4649 20.4239C64.848 20.2306 65.1779 20.1339 65.4546 20.1339C65.7313 20.1339 65.9974 20.2521 66.2528 20.4883C66.5082 20.7245 66.6359 20.993 66.6359 21.2936C66.6359 21.852 66.4018 22.26 65.9335 22.5177C65.4865 22.7539 65.0821 22.958 64.7203 23.1298C64.3584 23.3016 63.9647 23.4519 63.539 23.5807C62.5811 23.8599 61.4743 23.9995 60.2185 23.9995C57.6004 23.9995 55.5677 23.2586 54.1203 21.7768C52.6729 20.295 51.9492 18.1904 51.9492 15.463C51.9492 13.1007 52.5558 11.1357 53.7691 9.56799C55.1313 7.80702 57.0683 6.92653 59.5799 6.92651C61.9639 6.92653 63.8476 7.7426 65.2311 9.37472C66.5295 10.8995 67.1787 12.7893 67.1787 15.0442C67.1787 15.4523 67.0403 15.7959 66.7637 16.0751C66.5082 16.3543 66.157 16.4938 65.71 16.4938H54.8866ZM59.5799 9.40693C57.6855 9.40694 56.302 10.2552 55.4293 11.9518C55.1101 12.5531 54.9291 13.2725 54.8866 14.1101H64.3052C64.2201 12.5853 63.6667 11.3827 62.645 10.5022C61.7936 9.77203 60.7719 9.40694 59.5799 9.40693Z" fill="white"/>
<path d="M70.3729 1.48132C70.3729 1.05183 70.5113 0.697486 70.788 0.418282C71.0647 0.139125 71.4053 -0.000464282 71.8097 -0.000488281C72.2354 -0.000464282 72.5866 0.139125 72.8633 0.418282C73.14 0.697486 73.2783 1.05183 73.2783 1.48132V22.3877C73.2783 22.7957 73.14 23.1393 72.8633 23.4185C72.5866 23.6977 72.2354 23.8373 71.8097 23.8373C71.4053 23.8373 71.0647 23.6977 70.788 23.4185C70.5113 23.1393 70.3729 22.7957 70.3729 22.3877V1.48132Z" fill="white"/>
<path d="M79.5799 16.4938C79.7502 17.9542 80.293 19.1139 81.2082 19.9729C82.1235 20.8319 83.4006 21.2614 85.0396 21.2614C86.6785 21.2614 88.0514 20.9822 89.1582 20.4239C89.5413 20.2306 89.8713 20.1339 90.148 20.1339C90.4247 20.1339 90.6907 20.2521 90.9462 20.4883C91.2016 20.7245 91.3293 20.993 91.3293 21.2936C91.3293 21.852 91.0952 22.26 90.6269 22.5177C90.1799 22.7539 89.7755 22.958 89.4136 23.1298C89.0518 23.3016 88.658 23.4519 88.2323 23.5807C87.2745 23.8599 86.1677 23.9995 84.9118 23.9995C82.2938 23.9995 80.261 23.2586 78.8137 21.7768C77.3663 20.295 76.6426 18.1904 76.6426 15.463C76.6426 13.1007 77.2492 11.1357 78.4625 9.56799C79.8247 7.80702 81.7616 6.92653 84.2733 6.92651C86.6572 6.92653 88.5409 7.7426 89.9245 9.37472C91.2229 10.8995 91.8721 12.7893 91.8721 15.0442C91.8721 15.4523 91.7337 15.7959 91.457 16.0751C91.2016 16.3543 90.8504 16.4938 90.4034 16.4938H79.5799ZM84.2733 9.40693C82.3789 9.40694 80.9954 10.2552 80.1227 11.9518C79.8034 12.5531 79.6225 13.2725 79.5799 14.1101H88.9986C88.9134 12.5853 88.36 11.3827 87.3383 10.5022C86.4869 9.77203 85.4652 9.40694 84.2733 9.40693Z" fill="white"/>
<path d="M102.536 21.2614C103.728 21.2614 104.867 20.9607 105.952 20.3594C106.335 20.1447 106.676 20.0373 106.974 20.0373C107.272 20.0373 107.538 20.1769 107.772 20.4561C108.006 20.7352 108.123 21.0681 108.123 21.4547C108.123 21.8412 107.879 22.1956 107.389 22.5177C105.878 23.5056 104.175 23.9995 102.281 23.9995C99.9179 23.9995 97.9277 23.2479 96.3101 21.7446C94.6073 20.1554 93.7559 18.0616 93.7559 15.463C93.7559 12.8645 94.6073 10.7706 96.3101 9.18144C97.9277 7.67817 99.9179 6.92653 102.281 6.92651C103.558 6.92653 104.601 7.09833 105.409 7.44192C106.24 7.76407 106.899 8.0862 107.389 8.40832C107.879 8.73047 108.123 9.08481 108.123 9.47136C108.123 9.85793 108.006 10.1908 107.772 10.47C107.538 10.7492 107.304 10.8887 107.07 10.8887C106.708 10.8887 106.335 10.7814 105.952 10.5666C104.867 9.96531 103.728 9.66465 102.536 9.66464C100.663 9.66465 99.2155 10.2015 98.1938 11.2753C97.1721 12.3276 96.6613 13.7235 96.6613 15.463C96.6613 17.2025 97.1721 18.6092 98.1938 19.6829C99.2155 20.7352 100.663 21.2614 102.536 21.2614Z" fill="white"/>
<path d="M116.839 21.4235C117.413 21.4235 117.818 21.3805 118.052 21.2946C118.307 21.1872 118.573 21.1335 118.85 21.1335C119.148 21.1335 119.414 21.2409 119.648 21.4557C119.882 21.6704 119.999 21.9926 119.999 22.4221C119.999 22.8516 119.786 23.163 119.361 23.3562C118.446 23.7858 117.658 24.0005 116.998 24.0005C116.36 24.0005 115.774 23.9683 115.242 23.9039C114.71 23.8395 114.199 23.6569 113.71 23.3562C112.539 22.669 111.954 21.4664 111.954 19.7484V9.76228H109.687C109.282 9.76229 109.08 9.55827 109.08 9.15022C109.08 8.95696 109.176 8.77442 109.367 8.6026L113.71 4.31824C113.901 4.12498 114.082 4.02834 114.252 4.02832C114.423 4.02834 114.561 4.09277 114.667 4.2216C114.795 4.35047 114.859 4.5008 114.859 4.67259V7.24965H118.467C118.829 7.24966 119.127 7.36777 119.361 7.60399C119.595 7.84023 119.712 8.14089 119.712 8.50596C119.712 8.87105 119.595 9.17171 119.361 9.40793C119.127 9.64417 118.829 9.76229 118.467 9.76228H114.859V19.4907C114.859 20.3067 115.104 20.8651 115.593 21.1658C115.87 21.3376 116.285 21.4235 116.839 21.4235Z" fill="white"/>
<path d="M13.1859 21.5502C11.6107 23.1823 9.79091 23.9984 7.72639 23.9984C5.68302 23.9984 3.91621 23.2682 2.42639 21.8079C0.808653 20.1972 0 18.0819 0 15.4618C0 12.8848 0.808653 10.7802 2.42639 9.14808C3.89506 7.66629 5.66167 6.92538 7.72639 6.92536C9.79091 6.92538 11.6107 7.74147 13.1859 9.37357V1.4813C13.1859 1.05182 13.3236 0.697507 13.601 0.418299C13.8776 0.139152 14.2184 -0.000448015 14.6229 -0.000488281C15.0485 -0.000448015 15.3996 0.139051 15.6764 0.418299C15.953 0.697507 16.0915 1.05182 16.0915 1.4813V22.3877C16.0915 22.7957 15.9538 23.1394 15.6764 23.4186C15.3996 23.6977 15.0485 23.8373 14.6229 23.8373C14.2184 23.8373 13.8776 23.6978 13.601 23.4186C13.3242 23.1394 13.1859 22.7957 13.1859 22.3877V21.5502ZM13.1859 12.0795C11.7384 10.4688 10.0571 9.66353 8.14147 9.66351C5.71496 9.66353 4.10777 10.7588 3.32036 12.9492C3.04359 13.6794 2.90528 14.5169 2.90528 15.4618C2.90528 17.3087 3.4055 18.7583 4.40603 19.8106C5.32116 20.777 6.56624 21.2602 8.14147 21.2602C10.0571 21.2602 11.7384 20.455 13.1859 18.8443V12.0795Z" fill="#2ECC71"/>
<path d="M27.3392 6.92664C22.8166 6.92664 19.1699 10.771 19.1699 15.4833C19.1699 20.1955 22.8166 23.977 27.3392 23.977C31.8617 23.977 35.5705 20.1955 35.5705 15.4833C35.5705 13.8991 35.1074 12.4133 34.3854 11.142L26.965 20.6424L26.4035 21.3345C26.0825 21.7252 25.4756 21.7252 25.1564 21.3345L24.5954 20.5166L21.3527 16.3012C21.0757 15.9566 21.1176 15.4443 21.4784 15.1687L22.8503 14.162C23.2165 13.9093 23.7223 13.9828 23.9728 14.3507L25.9682 17.2448L33.2642 9.63192C31.7718 7.99146 29.6806 6.92651 27.3401 6.92651L27.3392 6.92664Z" fill="#2ECC71"/>
</svg>
