<svg width="43" height="44" viewBox="0 0 43 44" fill="none" xmlns="http://www.w3.org/2000/svg">
<path d="M21.2597 0.548285C9.80252 0.548285 0.564209 10.2874 0.564209 22.2252C0.564209 34.163 9.80252 43.7428 21.2597 43.7428C32.7169 43.7428 42.1126 34.163 42.1126 22.2252C42.1126 18.212 40.9394 14.4479 39.1104 11.2274L20.3119 35.2951L18.8895 37.0484C18.0761 38.0381 16.5388 38.0381 15.7299 37.0484L14.3088 34.9763L6.094 24.2973C5.39233 23.4244 5.49843 22.1266 6.41242 21.4283L9.88789 18.878C10.8155 18.2377 12.097 18.424 12.7315 19.3559L17.7867 26.6878L36.2699 7.40171C32.4891 3.24586 27.1915 0.547974 21.2622 0.547974L21.2597 0.548285Z" fill="#2ECC71"/>
</svg>
